<mxfile host="app.diagrams.net" agent="Mozilla/5.0 (Windows NT 10.0; Win64; x64) AppleWebKit/537.36 (KHTML, like Gecko) Chrome/120.0.0.0 Safari/537.36" version="24.7.17">
  <diagram name="Страница — 1" id="UQAC5lyNgn5QcYAlGW-z">
    <mxGraphModel dx="962" dy="609" grid="1" gridSize="10" guides="1" tooltips="1" connect="1" arrows="1" fold="1" page="1" pageScale="1" pageWidth="827" pageHeight="1169" math="0" shadow="0">
      <root>
        <mxCell id="0" />
        <mxCell id="1" parent="0" />
        <mxCell id="BOYmDQaxNkSnLl2RtAXD-9" value="Cl1" style="swimlane;fontStyle=1;align=center;verticalAlign=top;childLayout=stackLayout;horizontal=1;startSize=26;horizontalStack=0;resizeParent=1;resizeParentMax=0;resizeLast=0;collapsible=1;marginBottom=0;whiteSpace=wrap;html=1;" parent="1" vertex="1">
          <mxGeometry x="160" y="360" width="120" height="120" as="geometry" />
        </mxCell>
        <mxCell id="BOYmDQaxNkSnLl2RtAXD-10" value="&amp;nbsp;" style="text;strokeColor=none;fillColor=none;align=left;verticalAlign=top;spacingLeft=4;spacingRight=4;overflow=hidden;rotatable=0;points=[[0,0.5],[1,0.5]];portConstraint=eastwest;whiteSpace=wrap;html=1;" parent="BOYmDQaxNkSnLl2RtAXD-9" vertex="1">
          <mxGeometry y="26" width="120" height="40" as="geometry" />
        </mxCell>
        <mxCell id="BOYmDQaxNkSnLl2RtAXD-11" value="" style="line;strokeWidth=1;fillColor=none;align=left;verticalAlign=middle;spacingTop=-1;spacingLeft=3;spacingRight=3;rotatable=0;labelPosition=right;points=[];portConstraint=eastwest;strokeColor=inherit;" parent="BOYmDQaxNkSnLl2RtAXD-9" vertex="1">
          <mxGeometry y="66" width="120" height="8" as="geometry" />
        </mxCell>
        <mxCell id="BOYmDQaxNkSnLl2RtAXD-12" value="+ meth1&lt;span style=&quot;text-align: center;&quot;&gt;: void&lt;/span&gt;" style="text;strokeColor=none;fillColor=none;align=left;verticalAlign=top;spacingLeft=4;spacingRight=4;overflow=hidden;rotatable=0;points=[[0,0.5],[1,0.5]];portConstraint=eastwest;whiteSpace=wrap;html=1;" parent="BOYmDQaxNkSnLl2RtAXD-9" vertex="1">
          <mxGeometry y="74" width="120" height="46" as="geometry" />
        </mxCell>
        <mxCell id="BOYmDQaxNkSnLl2RtAXD-14" value="Cl12" style="swimlane;fontStyle=1;align=center;verticalAlign=top;childLayout=stackLayout;horizontal=1;startSize=26;horizontalStack=0;resizeParent=1;resizeParentMax=0;resizeLast=0;collapsible=1;marginBottom=0;whiteSpace=wrap;html=1;" parent="1" vertex="1">
          <mxGeometry x="360" y="360" width="120" height="120" as="geometry" />
        </mxCell>
        <mxCell id="BOYmDQaxNkSnLl2RtAXD-15" value="&amp;nbsp;" style="text;strokeColor=none;fillColor=none;align=left;verticalAlign=top;spacingLeft=4;spacingRight=4;overflow=hidden;rotatable=0;points=[[0,0.5],[1,0.5]];portConstraint=eastwest;whiteSpace=wrap;html=1;" parent="BOYmDQaxNkSnLl2RtAXD-14" vertex="1">
          <mxGeometry y="26" width="120" height="40" as="geometry" />
        </mxCell>
        <mxCell id="BOYmDQaxNkSnLl2RtAXD-16" value="" style="line;strokeWidth=1;fillColor=none;align=left;verticalAlign=middle;spacingTop=-1;spacingLeft=3;spacingRight=3;rotatable=0;labelPosition=right;points=[];portConstraint=eastwest;strokeColor=inherit;" parent="BOYmDQaxNkSnLl2RtAXD-14" vertex="1">
          <mxGeometry y="66" width="120" height="8" as="geometry" />
        </mxCell>
        <mxCell id="BOYmDQaxNkSnLl2RtAXD-17" value="+ meth2&lt;span style=&quot;text-align: center;&quot;&gt;: void&lt;/span&gt;" style="text;strokeColor=none;fillColor=none;align=left;verticalAlign=top;spacingLeft=4;spacingRight=4;overflow=hidden;rotatable=0;points=[[0,0.5],[1,0.5]];portConstraint=eastwest;whiteSpace=wrap;html=1;" parent="BOYmDQaxNkSnLl2RtAXD-14" vertex="1">
          <mxGeometry y="74" width="120" height="46" as="geometry" />
        </mxCell>
        <mxCell id="BOYmDQaxNkSnLl2RtAXD-18" value="Cl3" style="swimlane;fontStyle=1;align=center;verticalAlign=top;childLayout=stackLayout;horizontal=1;startSize=26;horizontalStack=0;resizeParent=1;resizeParentMax=0;resizeLast=0;collapsible=1;marginBottom=0;whiteSpace=wrap;html=1;" parent="1" vertex="1">
          <mxGeometry x="560" y="360" width="120" height="120" as="geometry" />
        </mxCell>
        <mxCell id="BOYmDQaxNkSnLl2RtAXD-19" value="&amp;nbsp;" style="text;strokeColor=none;fillColor=none;align=left;verticalAlign=top;spacingLeft=4;spacingRight=4;overflow=hidden;rotatable=0;points=[[0,0.5],[1,0.5]];portConstraint=eastwest;whiteSpace=wrap;html=1;" parent="BOYmDQaxNkSnLl2RtAXD-18" vertex="1">
          <mxGeometry y="26" width="120" height="40" as="geometry" />
        </mxCell>
        <mxCell id="BOYmDQaxNkSnLl2RtAXD-20" value="" style="line;strokeWidth=1;fillColor=none;align=left;verticalAlign=middle;spacingTop=-1;spacingLeft=3;spacingRight=3;rotatable=0;labelPosition=right;points=[];portConstraint=eastwest;strokeColor=inherit;" parent="BOYmDQaxNkSnLl2RtAXD-18" vertex="1">
          <mxGeometry y="66" width="120" height="8" as="geometry" />
        </mxCell>
        <mxCell id="BOYmDQaxNkSnLl2RtAXD-21" value="+ meth3&lt;span style=&quot;text-align: center;&quot;&gt;: void&lt;/span&gt;" style="text;strokeColor=none;fillColor=none;align=left;verticalAlign=top;spacingLeft=4;spacingRight=4;overflow=hidden;rotatable=0;points=[[0,0.5],[1,0.5]];portConstraint=eastwest;whiteSpace=wrap;html=1;" parent="BOYmDQaxNkSnLl2RtAXD-18" vertex="1">
          <mxGeometry y="74" width="120" height="46" as="geometry" />
        </mxCell>
        <mxCell id="BOYmDQaxNkSnLl2RtAXD-25" value="" style="group" parent="1" vertex="1" connectable="0">
          <mxGeometry x="160" y="160" width="120" height="120" as="geometry" />
        </mxCell>
        <mxCell id="BOYmDQaxNkSnLl2RtAXD-7" value="«interface»&lt;br&gt;&lt;b&gt;If1&lt;/b&gt;" style="html=1;whiteSpace=wrap;" parent="BOYmDQaxNkSnLl2RtAXD-25" vertex="1">
          <mxGeometry width="120" height="80" as="geometry" />
        </mxCell>
        <mxCell id="BOYmDQaxNkSnLl2RtAXD-8" value="+ meth1 (): void" style="html=1;whiteSpace=wrap;" parent="BOYmDQaxNkSnLl2RtAXD-25" vertex="1">
          <mxGeometry y="80" width="120" height="40" as="geometry" />
        </mxCell>
        <mxCell id="BOYmDQaxNkSnLl2RtAXD-26" value="" style="group" parent="1" vertex="1" connectable="0">
          <mxGeometry x="360" y="160" width="120" height="120" as="geometry" />
        </mxCell>
        <mxCell id="BOYmDQaxNkSnLl2RtAXD-5" value="«interface»&lt;br&gt;&lt;b&gt;If2&lt;/b&gt;" style="html=1;whiteSpace=wrap;" parent="BOYmDQaxNkSnLl2RtAXD-26" vertex="1">
          <mxGeometry width="120" height="80" as="geometry" />
        </mxCell>
        <mxCell id="BOYmDQaxNkSnLl2RtAXD-6" value="+ meth2 (): void" style="html=1;whiteSpace=wrap;" parent="BOYmDQaxNkSnLl2RtAXD-26" vertex="1">
          <mxGeometry y="80" width="120" height="40" as="geometry" />
        </mxCell>
        <mxCell id="BOYmDQaxNkSnLl2RtAXD-27" value="" style="group" parent="1" vertex="1" connectable="0">
          <mxGeometry x="560" y="160" width="120" height="120" as="geometry" />
        </mxCell>
        <mxCell id="BOYmDQaxNkSnLl2RtAXD-3" value="«interface»&lt;br&gt;&lt;b&gt;If3&lt;/b&gt;" style="html=1;whiteSpace=wrap;" parent="BOYmDQaxNkSnLl2RtAXD-27" vertex="1">
          <mxGeometry width="120" height="80" as="geometry" />
        </mxCell>
        <mxCell id="BOYmDQaxNkSnLl2RtAXD-4" value="+ meth3 (): void" style="html=1;whiteSpace=wrap;" parent="BOYmDQaxNkSnLl2RtAXD-27" vertex="1">
          <mxGeometry y="80" width="120" height="40" as="geometry" />
        </mxCell>
        <mxCell id="BOYmDQaxNkSnLl2RtAXD-30" value="" style="endArrow=block;dashed=1;endFill=0;endSize=12;html=1;rounded=0;entryX=0.5;entryY=1;entryDx=0;entryDy=0;exitX=0.5;exitY=0;exitDx=0;exitDy=0;" parent="1" source="BOYmDQaxNkSnLl2RtAXD-9" target="BOYmDQaxNkSnLl2RtAXD-8" edge="1">
          <mxGeometry width="160" relative="1" as="geometry">
            <mxPoint x="-70" y="340" as="sourcePoint" />
            <mxPoint x="90" y="340" as="targetPoint" />
          </mxGeometry>
        </mxCell>
        <mxCell id="BOYmDQaxNkSnLl2RtAXD-31" value="" style="endArrow=block;dashed=1;endFill=0;endSize=12;html=1;rounded=0;entryX=0.5;entryY=1;entryDx=0;entryDy=0;exitX=0.5;exitY=0;exitDx=0;exitDy=0;" parent="1" source="BOYmDQaxNkSnLl2RtAXD-14" target="BOYmDQaxNkSnLl2RtAXD-6" edge="1">
          <mxGeometry width="160" relative="1" as="geometry">
            <mxPoint x="270" y="350" as="sourcePoint" />
            <mxPoint x="270" y="290" as="targetPoint" />
          </mxGeometry>
        </mxCell>
        <mxCell id="BOYmDQaxNkSnLl2RtAXD-32" value="" style="endArrow=block;dashed=1;endFill=0;endSize=12;html=1;rounded=0;entryX=0.5;entryY=1;entryDx=0;entryDy=0;exitX=0.5;exitY=0;exitDx=0;exitDy=0;" parent="1" source="BOYmDQaxNkSnLl2RtAXD-18" target="BOYmDQaxNkSnLl2RtAXD-4" edge="1">
          <mxGeometry width="160" relative="1" as="geometry">
            <mxPoint x="470" y="350" as="sourcePoint" />
            <mxPoint x="470" y="290" as="targetPoint" />
          </mxGeometry>
        </mxCell>
        <mxCell id="BOYmDQaxNkSnLl2RtAXD-40" value="Extends" style="endArrow=block;endSize=16;endFill=0;html=1;rounded=0;entryX=1;entryY=0.5;entryDx=0;entryDy=0;exitX=0;exitY=0.5;exitDx=0;exitDy=0;" parent="1" source="BOYmDQaxNkSnLl2RtAXD-3" target="BOYmDQaxNkSnLl2RtAXD-5" edge="1">
          <mxGeometry width="160" relative="1" as="geometry">
            <mxPoint x="550" y="580" as="sourcePoint" />
            <mxPoint x="710" y="580" as="targetPoint" />
          </mxGeometry>
        </mxCell>
        <mxCell id="BOYmDQaxNkSnLl2RtAXD-41" value="Extends" style="endArrow=block;endSize=16;endFill=0;html=1;rounded=0;exitX=0;exitY=0.5;exitDx=0;exitDy=0;entryX=1;entryY=0.5;entryDx=0;entryDy=0;" parent="1" source="BOYmDQaxNkSnLl2RtAXD-5" target="BOYmDQaxNkSnLl2RtAXD-7" edge="1">
          <mxGeometry width="160" relative="1" as="geometry">
            <mxPoint x="570" y="210" as="sourcePoint" />
            <mxPoint x="310" y="260" as="targetPoint" />
          </mxGeometry>
        </mxCell>
        <mxCell id="BOYmDQaxNkSnLl2RtAXD-42" value="Extends" style="endArrow=block;endSize=16;endFill=0;html=1;rounded=0;exitX=0.339;exitY=0.993;exitDx=0;exitDy=0;exitPerimeter=0;entryX=0.669;entryY=1.008;entryDx=0;entryDy=0;entryPerimeter=0;" parent="1" source="BOYmDQaxNkSnLl2RtAXD-21" target="BOYmDQaxNkSnLl2RtAXD-12" edge="1">
          <mxGeometry width="160" relative="1" as="geometry">
            <mxPoint x="570" y="210" as="sourcePoint" />
            <mxPoint x="230" y="510" as="targetPoint" />
            <Array as="points">
              <mxPoint x="600" y="520" />
              <mxPoint x="240" y="520" />
            </Array>
          </mxGeometry>
        </mxCell>
        <mxCell id="BOYmDQaxNkSnLl2RtAXD-43" value="" style="endArrow=diamondThin;endFill=0;endSize=24;html=1;rounded=0;entryX=0;entryY=0.5;entryDx=0;entryDy=0;" parent="1" edge="1">
          <mxGeometry width="160" relative="1" as="geometry">
            <mxPoint x="160" y="400" as="sourcePoint" />
            <mxPoint x="161" y="200" as="targetPoint" />
            <Array as="points">
              <mxPoint x="120" y="400" />
              <mxPoint x="120" y="200" />
            </Array>
          </mxGeometry>
        </mxCell>
        <mxCell id="BOYmDQaxNkSnLl2RtAXD-44" value="" style="endArrow=diamondThin;endFill=0;endSize=24;html=1;rounded=0;entryX=1;entryY=0.5;entryDx=0;entryDy=0;exitX=-0.02;exitY=0.1;exitDx=0;exitDy=0;exitPerimeter=0;" parent="1" source="BOYmDQaxNkSnLl2RtAXD-18" target="BOYmDQaxNkSnLl2RtAXD-6" edge="1">
          <mxGeometry width="160" relative="1" as="geometry">
            <mxPoint x="400" y="590" as="sourcePoint" />
            <mxPoint x="560" y="590" as="targetPoint" />
            <Array as="points">
              <mxPoint x="510" y="372" />
              <mxPoint x="510" y="260" />
            </Array>
          </mxGeometry>
        </mxCell>
        <mxCell id="BOYmDQaxNkSnLl2RtAXD-45" value="" style="endArrow=diamondThin;endFill=0;endSize=24;html=1;rounded=0;entryX=0.331;entryY=1.022;entryDx=0;entryDy=0;entryPerimeter=0;" parent="1" target="BOYmDQaxNkSnLl2RtAXD-12" edge="1">
          <mxGeometry width="160" relative="1" as="geometry">
            <mxPoint x="640" y="480" as="sourcePoint" />
            <mxPoint x="320" y="580" as="targetPoint" />
            <Array as="points">
              <mxPoint x="640" y="560" />
              <mxPoint x="200" y="560" />
            </Array>
          </mxGeometry>
        </mxCell>
        <mxCell id="L_A1HULtENVmz45yiwgM-1" value="" style="endArrow=diamondThin;endFill=0;endSize=24;html=1;rounded=0;entryX=0;entryY=0.5;entryDx=0;entryDy=0;exitX=1;exitY=0.5;exitDx=0;exitDy=0;" edge="1" parent="1" source="BOYmDQaxNkSnLl2RtAXD-15" target="BOYmDQaxNkSnLl2RtAXD-4">
          <mxGeometry width="160" relative="1" as="geometry">
            <mxPoint x="570" y="410" as="sourcePoint" />
            <mxPoint x="490" y="270" as="targetPoint" />
            <Array as="points">
              <mxPoint x="530" y="406" />
              <mxPoint x="530" y="260" />
            </Array>
          </mxGeometry>
        </mxCell>
      </root>
    </mxGraphModel>
  </diagram>
</mxfile>
